<svg width="20" height="21" viewBox="0 0 20 21" fill="none" xmlns="http://www.w3.org/2000/svg">
<g clip-path="url(#clip0_1_64)">
<path d="M6.54297 16.0234C6.54297 16.1016 6.45312 16.1641 6.33984 16.1641C6.21094 16.1758 6.12109 16.1133 6.12109 16.0234C6.12109 15.9453 6.21094 15.8828 6.32422 15.8828C6.44141 15.8711 6.54297 15.9336 6.54297 16.0234ZM5.32812 15.8477C5.30078 15.9258 5.37891 16.0156 5.49609 16.0391C5.59766 16.0781 5.71484 16.0391 5.73828 15.9609C5.76172 15.8828 5.6875 15.793 5.57031 15.7578C5.46875 15.7305 5.35547 15.7695 5.32812 15.8477ZM7.05469 15.7812C6.94141 15.8086 6.86328 15.8828 6.875 15.9727C6.88672 16.0508 6.98828 16.1016 7.10547 16.0742C7.21875 16.0469 7.29688 15.9727 7.28516 15.8945C7.27344 15.8203 7.16797 15.7695 7.05469 15.7812ZM9.625 0.8125C4.20703 0.8125 0.0625 4.92578 0.0625 10.3438C0.0625 14.6758 2.78906 18.3828 6.68359 19.6875C7.18359 19.7773 7.35938 19.4688 7.35938 19.2148C7.35938 18.9727 7.34766 17.6367 7.34766 16.8164C7.34766 16.8164 4.61328 17.4023 4.03906 15.6523C4.03906 15.6523 3.59375 14.5156 2.95312 14.2227C2.95312 14.2227 2.05859 13.6094 3.01562 13.6211C3.01562 13.6211 3.98828 13.6992 4.52344 14.6289C5.37891 16.1367 6.8125 15.7031 7.37109 15.4453C7.46094 14.8203 7.71484 14.3867 7.99609 14.1289C5.8125 13.8867 3.60938 13.5703 3.60938 9.8125C3.60938 8.73828 3.90625 8.19922 4.53125 7.51172C4.42969 7.25781 4.09766 6.21094 4.63281 4.85938C5.44922 4.60547 7.32812 5.91406 7.32812 5.91406C8.10938 5.69531 8.94922 5.58203 9.78125 5.58203C10.6133 5.58203 11.4531 5.69531 12.2344 5.91406C12.2344 5.91406 14.1133 4.60156 14.9297 4.85938C15.4648 6.21484 15.1328 7.25781 15.0312 7.51172C15.6562 8.20312 16.0391 8.74219 16.0391 9.8125C16.0391 13.582 13.7383 13.8828 11.5547 14.1289C11.9141 14.4375 12.2188 15.0234 12.2188 15.9414C12.2188 17.2578 12.207 18.8867 12.207 19.207C12.207 19.4609 12.3867 19.7695 12.8828 19.6797C16.7891 18.3828 19.4375 14.6758 19.4375 10.3438C19.4375 4.92578 15.043 0.8125 9.625 0.8125ZM3.85938 14.2852C3.80859 14.3242 3.82031 14.4141 3.88672 14.4883C3.94922 14.5508 4.03906 14.5781 4.08984 14.5273C4.14062 14.4883 4.12891 14.3984 4.0625 14.3242C4 14.2617 3.91016 14.2344 3.85938 14.2852ZM3.4375 13.9688C3.41016 14.0195 3.44922 14.082 3.52734 14.1211C3.58984 14.1602 3.66797 14.1484 3.69531 14.0938C3.72266 14.043 3.68359 13.9805 3.60547 13.9414C3.52734 13.918 3.46484 13.9297 3.4375 13.9688ZM4.70312 15.3594C4.64062 15.4102 4.66406 15.5273 4.75391 15.6016C4.84375 15.6914 4.95703 15.7031 5.00781 15.6406C5.05859 15.5898 5.03516 15.4727 4.95703 15.3984C4.87109 15.3086 4.75391 15.2969 4.70312 15.3594ZM4.25781 14.7852C4.19531 14.8242 4.19531 14.9258 4.25781 15.0156C4.32031 15.1055 4.42578 15.1445 4.47656 15.1055C4.53906 15.0547 4.53906 14.9531 4.47656 14.8633C4.42188 14.7734 4.32031 14.7344 4.25781 14.7852Z" fill="#9CA3AF"/>
</g>
<defs>
<clipPath id="clip0_1_64">
<path d="M0.0625 0.5H19.4375V20.5H0.0625V0.5Z" fill="white"/>
</clipPath>
</defs>
</svg>
