<svg width="19" height="21" viewBox="0 0 19 21" fill="none" xmlns="http://www.w3.org/2000/svg">
<g clip-path="url(#clip0_1_61)">
<path d="M16.8125 1.75H1.80859C1.12109 1.75 0.5625 2.31641 0.5625 3.01172V17.9883C0.5625 18.6836 1.12109 19.25 1.80859 19.25H16.8125C17.5 19.25 18.0625 18.6836 18.0625 17.9883V3.01172C18.0625 2.31641 17.5 1.75 16.8125 1.75ZM5.85156 16.75H3.25781V8.39844H5.85547V16.75H5.85156ZM4.55469 7.25781C3.72266 7.25781 3.05078 6.58203 3.05078 5.75391C3.05078 4.92578 3.72266 4.25 4.55469 4.25C5.38281 4.25 6.05859 4.92578 6.05859 5.75391C6.05859 6.58594 5.38672 7.25781 4.55469 7.25781ZM15.5742 16.75H12.9805V12.6875C12.9805 11.7188 12.9609 10.4727 11.6328 10.4727C10.2812 10.4727 10.0742 11.5273 10.0742 12.6172V16.75H7.48047V8.39844H9.96875V9.53906H10.0039C10.3516 8.88281 11.1992 8.19141 12.4609 8.19141C15.0859 8.19141 15.5742 9.92188 15.5742 12.1719V16.75Z" fill="#9CA3AF"/>
</g>
<defs>
<clipPath id="clip0_1_61">
<path d="M0.5625 0.5H18.0625V20.5H0.5625V0.5Z" fill="white"/>
</clipPath>
</defs>
</svg>
