<svg width="21" height="21" viewBox="0 0 21 21" fill="none" xmlns="http://www.w3.org/2000/svg">
<g clip-path="url(#clip0_1_58)">
<path d="M18.5066 6.42638C18.5193 6.60403 18.5193 6.78173 18.5193 6.95938C18.5193 12.3781 14.395 18.6218 6.85691 18.6218C4.53457 18.6218 2.37723 17.9492 0.5625 16.7817C0.892461 16.8198 1.20969 16.8325 1.55234 16.8325C3.46855 16.8325 5.23254 16.1853 6.64117 15.0812C4.83914 15.0431 3.32898 13.8629 2.80867 12.2386C3.0625 12.2766 3.31629 12.302 3.58281 12.302C3.95082 12.302 4.31887 12.2512 4.66148 12.1624C2.78332 11.7817 1.37465 10.132 1.37465 8.13958V8.08884C1.92031 8.39341 2.55488 8.58376 3.22742 8.60911C2.12336 7.87306 1.40004 6.61673 1.40004 5.1954C1.40004 4.43399 1.60305 3.73603 1.9584 3.12688C3.97617 5.61419 7.00918 7.23853 10.4102 7.41622C10.3467 7.11165 10.3086 6.79442 10.3086 6.47716C10.3086 4.21825 12.1361 2.37817 14.4076 2.37817C15.5878 2.37817 16.6538 2.8731 17.4025 3.67259C18.3289 3.49493 19.2172 3.15228 20.0041 2.68274C19.6995 3.63454 19.0523 4.43403 18.202 4.94161C19.0269 4.85282 19.8264 4.62435 20.5624 4.30712C20.0041 5.11927 19.3061 5.84259 18.5066 6.42638Z" fill="#9CA3AF"/>
</g>
<defs>
<clipPath id="clip0_1_58">
<path d="M0.5625 0.5H20.5625V20.5H0.5625V0.5Z" fill="white"/>
</clipPath>
</defs>
</svg>
